Coordinates
version=1
nRows=13
nColumns=40
inDegrees=yes

Units are S.I. units (second, meters, Newtons, ...)
If the header above contains a line with 'inDegrees', this indicates whether rotational values are in degrees (yes) or radians (no).

endheader
time	pelvis_tilt	pelvis_list	pelvis_rotation	pelvis_tx	pelvis_ty	pelvis_tz	hip_flexion_r	hip_adduction_r	hip_rotation_r	knee_angle_r	knee_angle_r_beta	ankle_angle_r	subtalar_angle_r	mtp_angle_r	hip_flexion_l	hip_adduction_l	hip_rotation_l	knee_angle_l	knee_angle_l_beta	ankle_angle_l	subtalar_angle_l	mtp_angle_l	lumbar_extension	lumbar_bending	lumbar_rotation	arm_flex_r	arm_add_r	arm_rot_r	elbow_flex_r	pro_sup_r	wrist_flex_r	wrist_dev_r	arm_flex_l	arm_add_l	arm_rot_l	elbow_flex_l	pro_sup_l	wrist_flex_l	wrist_dev_l
      3.51000000	    -38.08011694	      4.36285198	     -5.83552726	     -0.38307635	      0.65395763	     -0.89523210	    102.94674868	    -15.78054422	      9.89003924	     97.62606729	      1.70389631	     32.37704013	      0.00000000	      0.00000000	    100.91320552	    -26.83671163	      2.50325942	     98.27751196	      1.71526616	     38.41917151	      0.00000000	      0.00000000	    -14.87821122	     -5.44422513	      5.73194961	     17.17989778	    -51.46715543	     89.59397664	     85.56658268	     88.72752119	      0.00000000	      0.00000000	     21.88424001	    -55.88862744	     89.61172143	     94.53139104	     88.51598286	      0.00000000	      0.00000000
      3.51500000	    -38.13876674	      4.33470937	     -5.82039681	     -0.38215075	      0.65609479	     -0.89504691	    102.70249139	    -15.71233010	      9.83294652	     97.35689910	      1.69919844	     32.33231685	      0.00000000	      0.00000000	    100.66217142	    -26.73460440	      2.46993408	     97.97601212	      1.71000400	     38.33820941	      0.00000000	      0.00000000	    -14.54808997	     -5.43496058	      5.73536448	     17.07308281	    -51.42504998	     89.58601328	     85.54979249	     88.72883827	      0.00000000	      0.00000000	     21.77438819	    -55.87949602	     89.60486963	     94.54019258	     88.52073970	      0.00000000	      0.00000000
      3.52000000	    -38.19322122	      4.31294927	     -5.79517579	     -0.38156158	      0.65875146	     -0.89490618	    102.39258026	    -15.65141776	      9.75985635	     96.92903680	      1.69173083	     32.25022569	      0.00000000	      0.00000000	    100.32634896	    -26.59351982	      2.38414014	     97.47994169	      1.70134594	     38.23027710	      0.00000000	      0.00000000	    -14.25053431	     -5.41981706	      5.74063724	     17.19264874	    -51.32515362	     89.58237407	     85.38743257	     88.71460079	      0.00000000	      0.00000000	     21.92754766	    -55.83331973	     89.59712009	     94.49073958	     88.50599918	      0.00000000	      0.00000000
      3.52500000	    -38.21225902	      4.30105047	     -5.75822965	     -0.38063540	      0.66133723	     -0.89472998	    102.06129944	    -15.60756960	      9.70429154	     96.57290112	      1.68551509	     32.19488529	      0.00000000	      0.00000000	     99.96691406	    -26.44575139	      2.31078013	     97.07391240	      1.69425939	     38.13925653	      0.00000000	      0.00000000	    -13.96358184	     -5.42668227	      5.73624366	     17.16026717	    -51.22044233	     89.58035771	     85.21491527	     88.71255627	      0.00000000	      0.00000000	     21.94743183	    -55.79007746	     89.59571980	     94.39795250	     88.49509829	      0.00000000	      0.00000000
      3.53000000	    -38.23695753	      4.26886816	     -5.70923911	     -0.37976204	      0.66387250	     -0.89459527	    101.74006191	    -15.58079015	      9.63927768	     96.23318793	      1.67958598	     32.12902922	      0.00000000	      0.00000000	     99.63662137	    -26.35230911	      2.20873822	     96.66909914	      1.68719406	     38.02783042	      0.00000000	      0.00000000	    -13.65137582	     -5.40613276	      5.72216397	     17.10517303	    -51.16429903	     89.57340134	     85.07750272	     88.70889921	      0.00000000	      0.00000000	     21.99708506	    -55.73863860	     89.58643639	     94.35031018	     88.48566299	      0.00000000	      0.00000000
      3.53500000	    -37.99416129	      4.30237155	     -5.59061953	     -0.37824665	      0.66719741	     -0.89477978	    101.12998138	    -15.70255051	      9.66045745	     95.88489664	      1.67350715	     32.10521687	      0.00000000	      0.00000000	     98.85671806	    -26.07555310	      1.98835751	     96.21223386	      1.67922026	     38.03182645	      0.00000000	      0.00000000	    -13.61707934	     -5.44959598	      5.63329108	     17.10131476	    -50.97123935	     89.56969864	     84.62230065	     88.70165707	      0.00000000	      0.00000000	     22.07504087	    -55.58580660	     89.59136405	     94.06069014	     88.46690588	      0.00000000	      0.00000000
      3.54000000	    -38.01791981	      4.28605250	     -5.57476159	     -0.37736579	      0.66992665	     -0.89454282	    100.79233158	    -15.62410190	      9.60137839	     95.49780799	      1.66675118	     32.03631855	      0.00000000	      0.00000000	     98.48333092	    -25.95560862	      1.91330279	     95.76028590	      1.67133228	     37.92058113	      0.00000000	      0.00000000	    -13.25413904	     -5.45088651	      5.63292105	     17.09356516	    -50.90749121	     89.56036373	     84.58463812	     88.69566440	      0.00000000	      0.00000000	     22.07956606	    -55.56984647	     89.58123002	     94.05113658	     88.46337985	      0.00000000	      0.00000000
      3.54500000	    -37.99813566	      4.28451840	     -5.54401113	     -0.37639883	      0.67275146	     -0.89428997	    100.41124702	    -15.57799737	      9.55464717	     95.11289861	      1.66003324	     31.96099555	      0.00000000	      0.00000000	     98.05745120	    -25.81745235	      1.82766277	     95.31607191	      1.66357928	     37.80881476	      0.00000000	      0.00000000	    -12.92500293	     -5.46891871	      5.63201379	     17.09130997	    -50.81046437	     89.55979811	     84.45352538	     88.68963210	      0.00000000	      0.00000000	     22.13515587	    -55.55373724	     89.57908795	     94.00449926	     88.45570605	      0.00000000	      0.00000000
      3.55000000	    -37.94160335	      4.28425819	     -5.51864261	     -0.37515366	      0.67584133	     -0.89409054	     99.95538526	    -15.52157281	      9.52894620	     94.71550295	      1.65309738	     31.87872881	      0.00000000	      0.00000000	     97.55011559	    -25.68204999	      1.71351062	     94.84577044	      1.65537098	     37.70158099	      0.00000000	      0.00000000	    -12.62898608	     -5.48982729	      5.62100180	     17.06443670	    -50.67197578	     89.55440996	     84.20143721	     88.68025352	      0.00000000	      0.00000000	     22.14078796	    -55.48506133	     89.57458176	     93.85599298	     88.44631928	      0.00000000	      0.00000000
      3.55500000	    -37.62486974	      4.34970115	     -5.47096320	     -0.37353823	      0.67948747	     -0.89398921	     99.27049803	    -15.57084689	      9.55841065	     94.34779277	      1.64667963	     31.82258538	      0.00000000	      0.00000000	     96.66950037	    -25.53461312	      1.42941646	     94.38292506	      1.64729280	     37.65828777	      0.00000000	      0.00000000	    -12.60799732	     -5.60117063	      5.57852188	     17.04054378	    -50.46317165	     89.54886534	     83.75094396	     88.67527435	      0.00000000	      0.00000000	     22.26112205	    -55.36060147	     89.57494082	     93.60403398	     88.43170210	      0.00000000	      0.00000000
      3.56000000	    -37.34023901	      4.38374558	     -5.41854173	     -0.37197911	      0.68330772	     -0.89392910	     98.56766241	    -15.59463765	      9.56835407	     93.92110783	      1.63923257	     31.78162235	      0.00000000	      0.00000000	     95.81223465	    -25.36073161	      1.17870261	     93.85154422	      1.63801845	     37.61481454	      0.00000000	      0.00000000	    -12.57279139	     -5.66384389	      5.51373513	     17.08468038	    -50.33874666	     89.54154887	     83.52049332	     88.66600955	      0.00000000	      0.00000000	     22.28134647	    -55.26884732	     89.56867560	     93.41569496	     88.42342101	      0.00000000	      0.00000000
      3.56500000	    -37.34325821	      4.37362860	     -5.41342199	     -0.37095922	      0.68652938	     -0.89365132	     98.15852228	    -15.51784606	      9.49828171	     93.45382414	      1.63107693	     31.69131805	      0.00000000	      0.00000000	     95.36779104	    -25.23461394	      1.10228826	     93.32427130	      1.62881581	     37.45838484	      0.00000000	      0.00000000	    -12.16411362	     -5.66728463	      5.52302604	     17.07720898	    -50.24313098	     89.52689784	     83.43184958	     88.65908065	      0.00000000	      0.00000000	     22.28060972	    -55.25693659	     89.55348199	     93.41019025	     88.41891731	      0.00000000	      0.00000000
      3.57000000	    -37.21283414	      4.35456430	     -5.37921690	     -0.36978070	      0.69006467	     -0.89349522	     97.60719663	    -15.48355125	      9.44865059	     93.00716222	      1.62328121	     31.54084776	      0.00000000	      0.00000000	     94.77235674	    -25.09251956	      0.96570262	     92.79936039	      1.61965438	     37.29939527	      0.00000000	      0.00000000	    -11.90124503	     -5.66253953	      5.50711845	     17.11487884	    -50.10489170	     89.52713942	     83.16370779	     88.64916082	      0.00000000	      0.00000000	     22.36665179	    -55.19008606	     89.55764966	     93.26246028	     88.40562203	      0.00000000	      0.00000000
